PathFileType	4	(X/Y/Z)	C:\Users\Basilio\Documents\Thesis Gigler\squatting_fais\c3dfiles\041\SLS_pre_back1\markers_experimental.trc
DataRate	CameraRate	NumFrames	NumMarkers	Units	OrigDataRate	OrigDataStartFrame	OrigNumFrames
200.000000	200.000000	4	62	mm	200.000000	0	1738
Frame#	Time	FHD			LBHD			RBHD			C7			T10			CLAV			LSHO			LUUPA			LMUPA			LDUPA			LLEP			LMEP			LRAD			LUL			LRFIN			RSHO			RUPA1			RMUPA			RDUPA			RLEP			RMEP			RRAD			RUL			RUFIN			LASI			RASI			USACR			LSACR			RSACR			LTHI1			LTHI2			LTHI3			LTHI4			LLFC			LMFC			LTIB1			LTIB2			LTIB3			LTIB4			LLMAL			LMMAL			LHEE			LMT1			LMT2			LMT5			RTHI			RTHI2			RTHI3			RTHI4			RLFC			RMFC			RTIB1			RTIB2			RTIB3			RTIB4			RLMAL			RMMAL			RHEE			RMT1			RMT2			RMT5			*61			
		X1	Y1	Z1	X2	Y2	Z2	X3	Y3	Z3	X4	Y4	Z4	X5	Y5	Z5	X6	Y6	Z6	X7	Y7	Z7	X8	Y8	Z8	X9	Y9	Z9	X10	Y10	Z10	X11	Y11	Z11	X12	Y12	Z12	X13	Y13	Z13	X14	Y14	Z14	X15	Y15	Z15	X16	Y16	Z16	X17	Y17	Z17	X18	Y18	Z18	X19	Y19	Z19	X20	Y20	Z20	X21	Y21	Z21	X22	Y22	Z22	X23	Y23	Z23	X24	Y24	Z24	X25	Y25	Z25	X26	Y26	Z26	X27	Y27	Z27	X28	Y28	Z28	X29	Y29	Z29	X30	Y30	Z30	X31	Y31	Z31	X32	Y32	Z32	X33	Y33	Z33	X34	Y34	Z34	X35	Y35	Z35	X36	Y36	Z36	X37	Y37	Z37	X38	Y38	Z38	X39	Y39	Z39	X40	Y40	Z40	X41	Y41	Z41	X42	Y42	Z42	X43	Y43	Z43	X44	Y44	Z44	X45	Y45	Z45	X46	Y46	Z46	X47	Y47	Z47	X48	Y48	Z48	X49	Y49	Z49	X50	Y50	Z50	X51	Y51	Z51	X52	Y52	Z52	X53	Y53	Z53	X54	Y54	Z54	X55	Y55	Z55	X56	Y56	Z56	X57	Y57	Z57	X58	Y58	Z58	X59	Y59	Z59	X60	Y60	Z60	X61	Y61	Z61	X62	Y62	Z62	

1	0	-119.028076171875	1690.342407226563	-1124.18017578125	-306.0429687500001	1719.961669921875	-1197.6416015625	-283.9114379882813	1720.463256835938	-1045.761108398438	-405.5621643066407	1561.766479492188	-1125.845947265625	-441.2547607421876	1240.712524414063	-1089.260986328125	-256.0390930175782	1491.236572265625	-1123.332153320313	-344.4724121093751	1537.295043945313	-1296.288940429688	-401.7263183593751	1347.439819335938	-1373.295288085938	-366.5755310058594	1313.362915039063	-1371.240966796875	-416.6099853515626	1280.594482421875	-1386.298706054688	-425.097869873047	1230.886474609375	-1389.234497070313	-419.599578857422	1195.534545898438	-1308.146850585938	-260.3795166015626	1003.651306152344	-1400.377563476563	-329.5226135253907	985.061706542969	-1423.25341796875	-229.4749450683594	943.8377075195315	-1441.640625	-324.5312500000001	1557.97607421875	-954.2376098632815	-411.4477844238282	1365.376953125	-848.4036865234377	-364.4198913574219	1347.940063476563	-844.637634277344	-395.3591613769532	1299.163330078125	-829.4478759765627	-394.6821594238282	1253.889038085938	-819.0485839843752	-410.9051513671876	1223.985473632813	-905.089050292969	-244.1119995117188	1033.901977539063	-842.3787231445315	-306.8710632324219	1011.675903320313	-805.0957031250002	-201.7638092041016	975.5699462890627	-813.3581542968752	-248.7749328613282	1057.761474609375	-1175.698608398438	-273.5117187500001	1063.339233398438	-950.0008544921877	-442.1090393066407	1124.409057617188	-1079.752807617188	-452.6912841796876	1096.186157226563	-1106.3408203125	-460.4056091308595	1098.73291015625	-1052.386596679688	-353.9870605468751	845.201599121094	-1237.817504882813	-318.1354675292969	769.9082031250002	-1223.098388671875	-271.3624877929688	775.4331665039065	-1211.4970703125	-345.6964111328126	717.1282348632814	-1212.574462890625	-332.4267883300782	537.0241088867189	-1181.9345703125	-330.3750305175782	527.2313232421876	-1060.847534179688	-307.8554992675782	348.9658508300782	-1109.583984375	-354.2424316406251	301.5037536621094	-1170.248901367188	-316.8271179199219	299.4244689941407	-1142.747680664063	-321.7329406738282	225.6016540527344	-1103.992797851563	-380.9996643066407	129.7989044189453	-1135.376220703125	-345.1163635253907	139.35546875	-1054.961181640625	-445.6149902343751	112.5709228515625	-1094.616455078125	-239.6089324951172	63.14201736450197	-1059.116333007813	-231.5325317382813	55.971736907959	-1103.789306640625	-275.8087158203126	40.70243835449219	-1160.1328125	-355.3566894531251	796.0964965820315	-861.7142333984377	-308.7466125488282	750.4786987304689	-850.8865966796877	-275.9496459960938	757.6065063476564	-853.1487426757815	-319.8299255371094	666.6570434570314	-859.8602294921877	-304.2047729492188	551.4146118164064	-848.357360839844	-272.9131469726563	520.6760864257814	-959.4750976562502	-304.2767639160157	382.8766784667969	-838.0144653320315	-402.2135620117189	328.3046875000001	-830.0677490234377	-357.4665527343751	315.4753723144532	-822.8804321289065	-343.4756469726563	261.0026245117188	-843.6385498046877	-426.0233459472657	158.9842529296875	-827.8286743164065	-382.6047973632813	161.2653198242188	-903.6170043945315	-484.4248352050782	133.8618316650391	-886.576354980469	-278.6137084960938	68.29097747802736	-864.1267700195315	-279.9308776855469	73.08536529541017	-811.7738037109377	-333.9158020019532	67.9756546020508	-772.0407714843752	-4216.510253906251	853.1059570312502	-3944.728027343751	
2	0.005	-117.8067245483399	1688.287475585938	-1124.203979492188	-304.3773498535157	1719.777587890625	-1197.959350585938	-282.4430236816407	1720.149536132813	-1045.809936523438	-405.1800537109376	1561.916381835938	-1126.058715820313	-441.5096130371095	1240.821044921875	-1089.347900390625	-256.0169372558594	1491.030517578125	-1123.337524414063	-344.1840515136719	1537.1259765625	-1296.4580078125	-401.7033081054689	1347.265869140625	-1373.344604492188	-366.5887451171876	1313.141723632813	-1371.298950195313	-416.7158508300782	1280.454833984375	-1386.340087890625	-425.003631591797	1230.615234375	-1389.06298828125	-419.945037841797	1195.461669921875	-1308.107666015625	-260.8734741210938	1003.228271484375	-1400.10107421875	-330.1065979003907	984.7226562500002	-1422.937866210938	-230.0158233642579	943.4199829101565	-1441.39501953125	-324.5215454101563	1557.982177734375	-954.3929443359377	-411.9108886718751	1365.665893554688	-848.4711914062502	-364.9545593261719	1348.123168945313	-844.7122802734377	-395.908905029297	1299.42626953125	-829.4600219726565	-395.2933349609376	1254.209716796875	-819.0933837890627	-411.826873779297	1224.3046875	-905.1445312500002	-245.6243896484376	1033.532592773438	-842.081481933594	-308.7947692871094	1011.633056640625	-804.7583618164065	-203.3494873046876	975.0954589843752	-813.1414184570315	-249.1190185546876	1057.75830078125	-1175.348388671875	-274.2315673828126	1063.287109375	-949.7271728515627	-442.5646362304689	1124.43212890625	-1079.77197265625	-453.0859985351564	1096.134521484375	-1106.354614257813	-460.910125732422	1098.752807617188	-1052.442016601563	-354.1835632324219	845.1823730468752	-1237.6728515625	-318.2758178710938	769.9505004882815	-1222.944702148438	-271.4342956542969	775.4685668945315	-1211.363037109375	-345.7229919433594	717.1425781250001	-1212.459228515625	-332.3504028320313	537.0590820312501	-1181.751708984375	-330.4448852539063	527.1837768554689	-1060.677124023438	-307.8426208496094	348.9614257812501	-1109.46533203125	-354.2247924804688	301.5019531250001	-1170.142578125	-316.7984924316407	299.4117431640626	-1142.595458984375	-321.6965332031251	225.5418701171876	-1103.9013671875	-380.9750671386719	129.800521850586	-1135.378051757813	-345.1135559082032	139.3444061279297	-1054.898071289063	-445.6276855468751	112.5231246948242	-1094.59814453125	-239.6171417236329	63.15513610839845	-1059.114868164063	-231.4947967529297	55.99911499023439	-1103.75732421875	-275.7729797363282	40.7329444885254	-1160.125610351563	-355.9838256835938	796.1036376953127	-861.5208740234377	-309.1329650878907	750.5128173828126	-850.7715454101565	-276.5809326171876	757.7011108398439	-852.8059692382815	-320.4166259765626	666.7254638671876	-859.6058349609377	-304.6305847167969	551.4379882812501	-848.159362792969	-273.2332153320313	520.7984619140626	-959.2651367187502	-304.6043701171876	382.8895263671876	-837.8887939453127	-402.3513183593751	328.2850952148438	-829.877624511719	-357.8096008300782	315.4511718750001	-822.5796508789065	-343.6330871582032	260.9289550781251	-843.4768066406252	-426.0833740234376	158.9338531494141	-827.6856079101565	-382.7357177734376	161.2662200927735	-903.4419555664065	-484.4843750000001	133.8015289306641	-886.4121093750002	-278.6268615722657	68.32329559326173	-864.1326904296877	-279.9362182617188	73.10024261474611	-811.7747192382815	-333.8791809082032	67.92568206787111	-771.983581542969	-4216.505371093751	853.1641235351565	-3944.736328125001	
3	0.01	-116.2964782714844	1686.33935546875	-1124.321044921875	-302.5834655761719	1719.480712890625	-1198.092041015625	-280.8045654296876	1719.818237304688	-1046.05517578125	-404.8340759277345	1562.052124023438	-1126.297119140625	-441.9179077148439	1240.913452148438	-1089.383422851563	-255.9846649169922	1490.74560546875	-1123.327758789063	-343.8829040527344	1536.953491210938	-1296.62060546875	-401.7119750976564	1347.141723632813	-1373.425170898438	-366.9706115722657	1312.92529296875	-1371.097290039063	-416.7884521484376	1280.315063476563	-1386.359130859375	-425.1836547851564	1230.477661132813	-1389.028442382813	-420.2479248046876	1195.403442382813	-1308.029663085938	-261.6013488769532	1002.694152832031	-1399.739990234375	-330.8385925292969	984.3554687500002	-1422.618408203125	-230.5955047607422	942.9641113281252	-1441.171752929688	-324.4833679199219	1558.0322265625	-954.5983886718752	-412.3267211914064	1365.9248046875	-848.5059204101565	-365.2882995605469	1348.249145507813	-844.853210449219	-396.7671813964845	1299.806762695313	-829.3967895507815	-395.801239013672	1254.524780273438	-819.1389160156252	-412.4575195312501	1224.551879882813	-905.0855712890627	-247.1293029785157	1033.214111328125	-841.537780761719	-310.3201293945313	1011.54931640625	-804.349792480469	-205.0299072265626	974.2717285156252	-812.636901855469	-249.6919708251954	1057.463012695313	-1174.905151367188	-275.2049865722657	1063.269287109375	-949.3898925781252	-442.9819946289064	1124.4443359375	-1079.797241210938	-453.4852294921876	1096.151733398438	-1106.4072265625	-461.1691284179689	1098.703979492188	-1052.435424804688	-354.4029846191407	845.151306152344	-1237.587158203125	-318.3441772460938	769.906921386719	-1222.806274414063	-271.5493164062501	775.4885253906252	-1211.109741210938	-345.7785339355469	717.1129150390626	-1212.289184570313	-332.3979187011719	537.0512084960939	-1181.56494140625	-330.5122070312501	527.1607055664064	-1060.486572265625	-307.8671875000001	348.9345397949219	-1109.337524414063	-354.2086791992188	301.4714050292969	-1170.076171875	-316.7987365722657	299.3699340820313	-1142.493774414063	-321.7067565917969	225.5588073730469	-1103.848022460938	-380.9883422851563	129.7960968017578	-1135.364501953125	-345.1270751953126	139.3019409179688	-1054.858642578125	-445.5942993164064	112.4964675903321	-1094.609497070313	-239.6610107421876	63.12093734741212	-1059.092163085938	-231.4817962646485	56.03090286254884	-1103.71630859375	-275.8258972167969	40.7757911682129	-1160.119506835938	-356.6032714843751	796.1737060546877	-861.2746582031252	-309.3879394531251	750.5775756835939	-850.6965332031252	-277.2060241699219	757.6697998046876	-852.509216308594	-320.7447509765626	666.7427978515626	-859.4326782226565	-304.9810180664063	551.4138183593751	-848.002624511719	-273.5792846679688	520.8804931640626	-959.0871582031252	-304.9393310546876	382.9339599609376	-837.6333007812502	-402.5789489746095	328.1848144531251	-829.676940917969	-358.0530090332032	315.4190673828126	-822.3001708984377	-343.8254699707032	260.8510742187501	-843.3333129882815	-426.1608886718751	158.8793182373047	-827.557556152344	-382.9640808105469	161.27001953125	-903.315612792969	-484.5288696289064	133.6991271972657	-886.2597656250002	-278.6931457519532	68.34584045410158	-864.1583251953127	-279.9668579101563	73.08846282958986	-811.7857055664065	-333.8348388671876	67.83390045166017	-771.9756469726565	-4216.510742187501	853.1064453125002	-3944.728759765626	
4	0.015	-115.0161743164063	1684.325317382813	-1124.6123046875	-300.8125610351563	1719.218872070313	-1198.408813476563	-278.9280090332032	1719.4560546875	-1046.34521484375	-404.3861694335939	1562.208862304688	-1126.530517578125	-442.2683105468751	1241	-1089.454956054688	-255.9141082763672	1490.517944335938	-1123.376708984375	-343.4808349609376	1536.700073242188	-1296.803588867188	-401.5877075195314	1346.98583984375	-1373.505981445313	-366.6772460937501	1312.690795898438	-1371.314208984375	-416.8634338378907	1280.190063476563	-1386.373901367188	-425.4206542968751	1230.333618164063	-1389.018432617188	-420.5220336914064	1195.361083984375	-1308.028442382813	-262.3329772949219	1002.266784667969	-1399.37890625	-331.5498046875001	983.9483642578127	-1422.30029296875	-231.6448211669922	942.3970947265627	-1440.761962890625	-324.5128479003907	1558.07763671875	-954.7832031250002	-412.6345825195314	1366.188598632813	-848.6280517578127	-365.9268188476563	1348.328002929688	-845.0357666015627	-397.253631591797	1300.099609375	-829.4956665039065	-396.7987670898439	1254.830322265625	-819.054626464844	-413.1524963378907	1224.80712890625	-905.0385742187502	-248.763412475586	1032.890380859375	-841.3330688476565	-311.7809448242188	1011.596435546875	-804.0197753906252	-206.9931793212891	973.7341918945315	-812.2135009765627	-249.9703369140626	1057.378784179688	-1174.669555664063	-275.4001159667969	1063.363891601563	-949.3220214843752	-443.3837890625001	1124.44384765625	-1079.778686523438	-453.8397521972657	1096.138671875	-1106.452026367188	-461.6670227050782	1098.722778320313	-1052.434814453125	-354.5848999023438	845.0439453125002	-1237.467163085938	-318.4429626464844	769.9304199218752	-1222.667846679688	-271.6665649414063	775.4765625000002	-1210.880126953125	-345.9106750488282	717.0742797851564	-1212.137451171875	-332.3400878906251	537.0266723632814	-1181.35107421875	-330.9449157714844	527.0546264648439	-1059.66064453125	-307.9406738281251	348.8080749511719	-1109.106689453125	-354.1889953613282	301.4828186035157	-1169.955688476563	-316.8708801269532	299.3047485351563	-1142.38134765625	-321.6098937988282	225.5332489013672	-1103.69091796875	-380.9729614257813	129.7825317382813	-1135.32421875	-345.1093444824219	139.2643127441407	-1054.822021484375	-445.6284790039064	112.4590759277344	-1094.589721679688	-239.6501159667969	63.25308990478517	-1059.091064453125	-231.480941772461	56.02999114990236	-1103.736938476563	-275.1602783203126	40.28792572021485	-1159.961791992188	-356.9712829589844	796.2474365234377	-861.1373291015627	-309.9777221679688	750.5660400390626	-850.4715576171877	-277.7711181640626	757.7481689453126	-852.295837402344	-321.1644592285157	666.7433471679689	-859.2168579101565	-305.5926208496094	551.5452880859376	-847.6569824218752	-273.1954345703126	520.5338134765626	-958.7780761718752	-305.1625976562501	382.9705810546876	-837.5177001953127	-402.749725341797	328.1235351562501	-829.5269775390627	-358.2266235351563	315.3795471191407	-822.1267089843752	-343.9362487792969	260.8547668457032	-843.2186279296877	-426.2183837890626	158.8229675292969	-827.3667602539065	-383.1263122558594	161.216064453125	-903.140808105469	-484.6607666015626	133.5942840576172	-886.0180664062502	-278.6984863281251	68.36248779296876	-864.1054687500002	-279.9844665527344	73.09449005126955	-811.7912597656252	-333.8463745117188	67.81624603271486	-771.8963012695315	-4216.574707031251	853.0454101562502	-3944.862548828126	
